<svg xmlns="http://www.w3.org/2000/svg" xmlns:xlink="http://www.w3.org/1999/xlink" width="500" zoomAndPan="magnify" viewBox="0 0 375 374.999991" height="500" preserveAspectRatio="xMidYMid meet" version="1.0"><defs><g/><clipPath id="df7fb9646e"><path d="M 0 3.265625 L 375 3.265625 L 375 301.765625 L 0 301.765625 Z M 0 3.265625 " clip-rule="nonzero"/></clipPath></defs><rect x="-37.5" width="450" fill="#ffffff" y="-37.499999" height="449.999989" fill-opacity="1"/><rect x="-37.5" width="450" fill="#ffffff" y="-37.499999" height="449.999989" fill-opacity="1"/><path fill="#219ebc" d="M 152.617188 115.605469 L 193.722656 115.605469 L 193.722656 296.847656 L 152.617188 296.847656 Z M 152.617188 115.605469 " fill-opacity="1" fill-rule="evenodd"/><path fill="#8ecae6" d="M 245.042969 213.304688 L 245.042969 296.847656 L 295.988281 296.847656 L 295.988281 196.039062 L 281.628906 184.886719 Z M 245.042969 213.304688 " fill-opacity="1" fill-rule="evenodd"/><path fill="#219ebc" d="M 326.785156 211.210938 L 326.785156 296.851562 L 369.792969 296.851562 L 369.792969 154.210938 L 304.558594 154.210938 L 304.558594 191.851562 L 325.003906 207.734375 C 326.085938 208.511719 326.785156 209.78125 326.785156 211.214844 Z M 326.785156 211.210938 " fill-opacity="1" fill-rule="evenodd"/><path fill="#8ecae6" d="M 51.0625 213.5 L 78.902344 213.5 L 78.902344 296.847656 L 51.0625 296.847656 Z M 51.0625 213.5 " fill-opacity="1" fill-rule="evenodd"/><path fill="#219ebc" d="M 110.554688 145.359375 L 110.554688 296.847656 L 124.238281 296.847656 L 124.238281 155.988281 Z M 110.554688 145.359375 " fill-opacity="1" fill-rule="evenodd"/><g clip-path="url(#df7fb9646e)"><path fill="#023047" d="M 98.523438 293.390625 L 98.523438 135.242188 L 84.191406 124.113281 L 47.605469 152.527344 L 47.605469 201.472656 L 79.726562 201.472656 C 82.09375 201.472656 84.015625 203.394531 84.015625 205.757812 L 84.015625 293.386719 L 98.523438 293.386719 Z M 84.015625 301.960938 L 0.0820312 301.960938 L 0.152344 297.402344 L 0.152344 293.386719 L 0.21875 293.386719 L 1.632812 205.757812 C 1.632812 203.390625 3.550781 201.472656 5.917969 201.472656 L 39.035156 201.472656 L 39.035156 150.433594 C 39.035156 149.003906 39.734375 147.734375 40.816406 146.957031 L 81.496094 115.359375 C 81.746094 115.160156 82.015625 114.984375 82.296875 114.847656 L 82.304688 114.847656 L 82.390625 114.804688 L 82.394531 114.800781 L 82.46875 114.769531 C 82.980469 114.546875 83.519531 114.429688 84.054688 114.414062 L 84.074219 114.414062 L 84.144531 114.410156 L 84.234375 114.410156 L 84.304688 114.414062 L 84.320312 114.414062 C 84.863281 114.429688 85.402344 114.546875 85.910156 114.769531 L 85.988281 114.800781 L 85.992188 114.804688 L 86.078125 114.847656 L 86.085938 114.847656 C 86.367188 114.984375 86.636719 115.160156 86.882812 115.359375 L 98.519531 124.398438 L 98.519531 7.542969 C 98.519531 5.175781 100.441406 3.261719 102.808594 3.261719 C 103.929688 3.261719 104.953125 3.691406 105.714844 4.398438 L 166.167969 50.324219 C 167.390625 51.082031 168.207031 52.429688 168.207031 53.972656 L 168.207031 96.804688 L 159.636719 96.835938 L 159.636719 56.074219 L 107.097656 16.15625 L 107.097656 131.054688 L 127.570312 146.957031 C 128.648438 147.734375 129.351562 149.003906 129.351562 150.433594 L 129.351562 293.386719 L 139.058594 293.386719 L 140.585938 107.859375 C 140.585938 105.492188 142.503906 103.574219 144.871094 103.574219 L 190.261719 103.574219 L 190.261719 38.441406 C 190.261719 36.074219 192.183594 34.160156 194.550781 34.160156 C 195.671875 34.160156 196.695312 34.589844 197.457031 35.296875 L 257.910156 81.222656 C 259.132812 81.980469 259.949219 83.328125 259.949219 84.871094 L 259.949219 170.992188 L 251.378906 178.046875 L 251.378906 86.972656 L 198.839844 47.054688 L 198.839844 103.574219 L 218.679688 103.574219 C 221.046875 103.574219 222.96875 105.496094 222.96875 107.859375 L 222.96875 293.386719 L 233.011719 293.386719 L 233.011719 207.746094 C 233.011719 206.3125 233.710938 205.042969 234.796875 204.265625 L 275.476562 172.671875 C 275.722656 172.46875 275.992188 172.296875 276.273438 172.160156 L 276.28125 172.15625 L 276.367188 172.117188 L 276.371094 172.113281 L 276.445312 172.082031 C 276.957031 171.859375 277.496094 171.738281 278.035156 171.726562 L 278.050781 171.726562 L 278.125 171.722656 L 278.214844 171.722656 L 278.28125 171.726562 L 278.300781 171.726562 C 278.839844 171.738281 279.378906 171.859375 279.890625 172.082031 L 279.964844 172.113281 L 279.96875 172.117188 L 280.054688 172.15625 L 280.0625 172.160156 C 280.347656 172.296875 280.613281 172.46875 280.859375 172.671875 L 292.527344 181.730469 L 292.527344 146.460938 C 292.527344 144.09375 294.445312 142.175781 296.8125 142.175781 L 370.621094 142.175781 C 372.988281 142.175781 374.910156 144.097656 374.910156 146.460938 L 374.910156 293.382812 L 374.914062 293.382812 L 374.914062 301.953125 L 84.019531 301.953125 Z M 75.441406 293.390625 L 75.441406 210.042969 L 47.605469 210.042969 L 47.605469 293.390625 Z M 39.035156 293.390625 L 39.035156 210.042969 L 10.203125 210.042969 L 10.203125 293.390625 Z M 120.78125 293.390625 L 120.78125 152.527344 L 107.097656 141.902344 L 107.097656 293.390625 Z M 366.335938 293.390625 L 323.328125 293.390625 L 323.328125 207.75 C 323.328125 206.316406 322.628906 205.046875 321.546875 204.269531 L 301.101562 188.386719 L 301.101562 150.75 L 366.335938 150.75 Z M 314.757812 293.390625 L 301.097656 293.390625 L 301.097656 199.238281 L 314.757812 209.847656 L 314.757812 293.394531 Z M 292.527344 293.390625 L 241.582031 293.390625 L 241.582031 209.84375 L 278.171875 181.425781 L 292.527344 192.578125 Z M 214.394531 293.390625 L 198.839844 293.390625 L 198.839844 112.148438 L 214.394531 112.148438 Z M 190.265625 293.390625 L 149.160156 293.390625 L 149.160156 112.148438 L 190.265625 112.148438 Z M 190.265625 293.390625 " fill-opacity="1" fill-rule="evenodd"/></g><g fill="#023047" fill-opacity="1"><g transform="translate(95.1607, 356.642233)"><g><path d="M 22.09375 -42.609375 L 32.71875 -42.609375 L 32.71875 0 L 22.765625 0 L 13.265625 -22.359375 L 13.265625 0 L 2.65625 0 L 2.65625 -42.609375 L 12.609375 -42.609375 L 22.09375 -19.84375 Z M 22.09375 -42.609375 "/></g></g></g><g fill="#023047" fill-opacity="1"><g transform="translate(130.527188, 356.642233)"><g><path d="M 14.265625 -8.296875 L 28.796875 -8.296875 L 28.796875 0 L 2.65625 0 L 2.65625 -42.609375 L 28.203125 -42.609375 L 28.203125 -34.3125 L 14.265625 -34.3125 L 14.265625 -25.609375 L 26.28125 -25.609375 L 26.28125 -17.3125 L 14.265625 -17.3125 Z M 14.265625 -8.296875 "/></g></g></g><g fill="#023047" fill-opacity="1"><g transform="translate(160.319971, 356.642233)"><g><path d="M 2.65625 -42.609375 L 14.265625 -42.609375 L 14.265625 0 L 2.65625 0 Z M 2.65625 -42.609375 "/></g></g></g><g fill="#023047" fill-opacity="1"><g transform="translate(177.240142, 356.642233)"><g><path d="M 20.5 -26.609375 L 20.5 -33.515625 C 20.5 -34.484375 19.945312 -34.96875 18.84375 -34.96875 L 14.0625 -34.96875 L 14.0625 -25.15625 L 18.84375 -25.15625 C 19.945312 -25.15625 20.5 -25.640625 20.5 -26.609375 Z M 20.5 -9.09375 L 20.5 -16.0625 C 20.5 -17.03125 19.945312 -17.515625 18.84375 -17.515625 L 14.0625 -17.515625 L 14.0625 -7.625 L 18.84375 -7.625 C 19.945312 -7.625 20.5 -8.113281 20.5 -9.09375 Z M 2.65625 -42.609375 L 22.15625 -42.609375 C 28.664062 -42.609375 31.921875 -39.863281 31.921875 -34.375 L 31.921875 -28.9375 C 31.921875 -25.082031 30.859375 -22.582031 28.734375 -21.4375 C 29.972656 -20.90625 30.8125 -20.097656 31.25 -19.015625 C 31.695312 -17.929688 31.921875 -16.457031 31.921875 -14.59375 L 31.921875 -8.234375 C 31.921875 -2.742188 28.664062 0 22.15625 0 L 2.65625 0 Z M 2.65625 -42.609375 "/></g></g></g><g fill="#023047" fill-opacity="1"><g transform="translate(211.478614, 356.642233)"><g><path d="M 12.203125 -42.609375 L 22.03125 -42.609375 C 28.53125 -42.609375 31.78125 -39.863281 31.78125 -34.375 L 31.78125 -8.234375 C 31.78125 -2.742188 28.53125 0 22.03125 0 L 12.203125 0 C 5.703125 0 2.453125 -2.742188 2.453125 -8.234375 L 2.453125 -34.375 C 2.453125 -39.863281 5.703125 -42.609375 12.203125 -42.609375 Z M 20.171875 -9.75 L 20.171875 -32.84375 C 20.171875 -33.820312 19.617188 -34.3125 18.515625 -34.3125 L 15.734375 -34.3125 C 14.617188 -34.3125 14.0625 -33.820312 14.0625 -32.84375 L 14.0625 -9.75 C 14.0625 -8.78125 14.617188 -8.296875 15.734375 -8.296875 L 18.515625 -8.296875 C 19.617188 -8.296875 20.171875 -8.78125 20.171875 -9.75 Z M 20.171875 -9.75 "/></g></g></g><g fill="#023047" fill-opacity="1"><g transform="translate(245.717085, 356.642233)"><g><path d="M 14.265625 -15.125 L 14.265625 0 L 2.65625 0 L 2.65625 -42.609375 L 22.359375 -42.609375 C 28.867188 -42.609375 32.125 -39.863281 32.125 -34.375 L 32.125 -23.359375 C 32.125 -19.148438 30.21875 -16.5625 26.40625 -15.59375 L 34.234375 0 L 21.765625 0 L 15 -15.125 Z M 18.84375 -34.3125 L 14.265625 -34.3125 L 14.265625 -23.03125 L 18.84375 -23.03125 C 19.945312 -23.03125 20.5 -23.515625 20.5 -24.484375 L 20.5 -32.84375 C 20.5 -33.820312 19.945312 -34.3125 18.84375 -34.3125 Z M 18.84375 -34.3125 "/></g></g></g></svg>