<svg xmlns="http://www.w3.org/2000/svg" xmlns:xlink="http://www.w3.org/1999/xlink" width="500" zoomAndPan="magnify" viewBox="0 0 375 374.999991" height="500" preserveAspectRatio="xMidYMid meet" version="1.0"><defs><clipPath id="7217176704"><path d="M 0 23.824219 L 375 23.824219 L 375 322.324219 L 0 322.324219 Z M 0 23.824219 " clip-rule="nonzero"/></clipPath></defs><rect x="-37.5" width="450" fill="#ffffff" y="-37.499999" height="449.999989" fill-opacity="1"/><rect x="-37.5" width="450" fill="#ffffff" y="-37.499999" height="449.999989" fill-opacity="1"/><path fill="#219ebc" d="M 152.617188 136.167969 L 193.722656 136.167969 L 193.722656 317.410156 L 152.617188 317.410156 Z M 152.617188 136.167969 " fill-opacity="1" fill-rule="evenodd"/><path fill="#8ecae6" d="M 245.042969 233.867188 L 245.042969 317.410156 L 295.988281 317.410156 L 295.988281 216.601562 L 281.628906 205.449219 Z M 245.042969 233.867188 " fill-opacity="1" fill-rule="evenodd"/><path fill="#219ebc" d="M 326.785156 231.773438 L 326.785156 317.414062 L 369.792969 317.414062 L 369.792969 174.773438 L 304.558594 174.773438 L 304.558594 212.414062 L 325.003906 228.296875 C 326.085938 229.074219 326.785156 230.34375 326.785156 231.777344 Z M 326.785156 231.773438 " fill-opacity="1" fill-rule="evenodd"/><path fill="#8ecae6" d="M 51.0625 234.0625 L 78.902344 234.0625 L 78.902344 317.410156 L 51.0625 317.410156 Z M 51.0625 234.0625 " fill-opacity="1" fill-rule="evenodd"/><path fill="#219ebc" d="M 110.554688 165.921875 L 110.554688 317.410156 L 124.238281 317.410156 L 124.238281 176.550781 Z M 110.554688 165.921875 " fill-opacity="1" fill-rule="evenodd"/><g clip-path="url(#7217176704)"><path fill="#023047" d="M 98.523438 313.953125 L 98.523438 155.804688 L 84.191406 144.675781 L 47.605469 173.089844 L 47.605469 222.035156 L 79.726562 222.035156 C 82.09375 222.035156 84.015625 223.957031 84.015625 226.320312 L 84.015625 313.949219 L 98.523438 313.949219 Z M 84.015625 322.523438 L 0.0820312 322.523438 L 0.152344 317.964844 L 0.152344 313.949219 L 0.21875 313.949219 L 1.632812 226.320312 C 1.632812 223.953125 3.550781 222.035156 5.917969 222.035156 L 39.035156 222.035156 L 39.035156 170.996094 C 39.035156 169.566406 39.734375 168.296875 40.816406 167.519531 L 81.496094 135.921875 C 81.746094 135.722656 82.015625 135.546875 82.296875 135.410156 L 82.304688 135.40625 L 82.390625 135.367188 L 82.394531 135.363281 L 82.46875 135.332031 C 82.980469 135.109375 83.519531 134.992188 84.054688 134.976562 L 84.074219 134.976562 L 84.144531 134.972656 L 84.234375 134.972656 L 84.304688 134.976562 L 84.320312 134.976562 C 84.863281 134.992188 85.402344 135.109375 85.910156 135.332031 L 85.988281 135.363281 L 85.992188 135.367188 L 86.078125 135.40625 L 86.085938 135.410156 C 86.367188 135.546875 86.636719 135.722656 86.882812 135.921875 L 98.519531 144.960938 L 98.519531 28.105469 C 98.519531 25.738281 100.441406 23.824219 102.808594 23.824219 C 103.929688 23.824219 104.953125 24.253906 105.714844 24.960938 L 166.167969 70.886719 C 167.390625 71.644531 168.207031 72.992188 168.207031 74.535156 L 168.207031 117.367188 L 159.636719 117.398438 L 159.636719 76.636719 L 107.097656 36.71875 L 107.097656 151.617188 L 127.570312 167.519531 C 128.648438 168.296875 129.351562 169.566406 129.351562 170.996094 L 129.351562 313.949219 L 139.058594 313.949219 L 140.585938 128.421875 C 140.585938 126.054688 142.503906 124.136719 144.871094 124.136719 L 190.261719 124.136719 L 190.261719 59.003906 C 190.261719 56.636719 192.183594 54.722656 194.550781 54.722656 C 195.671875 54.722656 196.695312 55.152344 197.457031 55.859375 L 257.910156 101.785156 C 259.132812 102.542969 259.949219 103.890625 259.949219 105.433594 L 259.949219 191.554688 L 251.378906 198.609375 L 251.378906 107.535156 L 198.839844 67.617188 L 198.839844 124.136719 L 218.679688 124.136719 C 221.046875 124.136719 222.96875 126.058594 222.96875 128.421875 L 222.96875 313.949219 L 233.011719 313.949219 L 233.011719 228.308594 C 233.011719 226.875 233.710938 225.605469 234.796875 224.828125 L 275.476562 193.234375 C 275.722656 193.03125 275.992188 192.859375 276.273438 192.722656 L 276.28125 192.71875 L 276.367188 192.679688 L 276.371094 192.675781 L 276.445312 192.644531 C 276.957031 192.421875 277.496094 192.300781 278.035156 192.285156 L 278.300781 192.285156 C 278.839844 192.300781 279.378906 192.421875 279.890625 192.644531 L 279.964844 192.675781 L 279.96875 192.679688 L 280.054688 192.71875 L 280.0625 192.722656 C 280.347656 192.859375 280.613281 193.03125 280.859375 193.234375 L 292.527344 202.292969 L 292.527344 167.023438 C 292.527344 164.65625 294.445312 162.738281 296.8125 162.738281 L 370.621094 162.738281 C 372.988281 162.738281 374.910156 164.660156 374.910156 167.023438 L 374.910156 313.945312 L 374.914062 313.945312 L 374.914062 322.515625 L 84.019531 322.515625 Z M 75.441406 313.953125 L 75.441406 230.605469 L 47.605469 230.605469 L 47.605469 313.953125 Z M 39.035156 313.953125 L 39.035156 230.605469 L 10.203125 230.605469 L 10.203125 313.953125 Z M 120.78125 313.953125 L 120.78125 173.089844 L 107.097656 162.464844 L 107.097656 313.953125 Z M 366.335938 313.953125 L 323.328125 313.953125 L 323.328125 228.3125 C 323.328125 226.878906 322.628906 225.609375 321.546875 224.832031 L 301.101562 208.949219 L 301.101562 171.308594 L 366.335938 171.308594 Z M 314.757812 313.953125 L 301.097656 313.953125 L 301.097656 219.800781 L 314.757812 230.410156 L 314.757812 313.957031 Z M 292.527344 313.953125 L 241.582031 313.953125 L 241.582031 230.40625 L 278.171875 201.988281 L 292.527344 213.140625 Z M 214.394531 313.953125 L 198.839844 313.953125 L 198.839844 132.710938 L 214.394531 132.710938 Z M 190.265625 313.953125 L 149.160156 313.953125 L 149.160156 132.710938 L 190.265625 132.710938 Z M 190.265625 313.953125 " fill-opacity="1" fill-rule="evenodd"/></g></svg>